<svg xmlns="http://www.w3.org/2000/svg" viewBox="0 0 60 60"><path d="M51.4 3.1c-0.5-0.2-11.4-4.5-19.8 0C24.8 6.8 13 4.1 10 3.3V1c0-0.6-0.4-1-1-1S8 0.4 8 1v3c0 0 0 0 0 0C8 4.1 8 4.1 8 4.1V33v1.1V59c0 0.6 0.4 1 1 1s1-0.4 1-1V35.4c2.3 0.6 7.2 1.6 12.4 1.6 3.6 0 7.2-0.5 10.1-2 7.7-4.1 18.1 0 18.2 0 0.3 0.1 0.7 0.1 0.9-0.1C51.8 34.7 52 34.4 52 34.1v-30C52 3.7 51.8 3.3 51.4 3.1zM50 32.7c-3.3-1-11.6-3.1-18.5 0.5C24.8 36.8 13 34.1 10 33.3V33 5.4c3.9 1 15.4 3.3 22.5-0.4C39 1.5 47.6 4 50 4.8V32.7z"/></svg>
